<svg width="700" height="300" xmlns="http://www.w3.org/2000/svg" version="1.1"><g transform="translate(50,0)"><text x="-50" y="23" style="font-size: 10px; font-family: Arial, Helvetica;">15-17</text><g class="y axis" transform="translate(0,30)" style="font-size: 10px; font-family: Arial, Helvetica;"><g class="tick" transform="translate(0,250)" style="opacity: 1;"><line x2="-6" y2="0" style="shape-rendering: crispEdges; fill: none; stroke: rgb(204, 204, 204);"></line><text dy=".32em" x="-9" y="0" style="text-anchor: end;">0</text></g><g class="tick" transform="translate(0,233.02783435166327)" style="opacity: 1;"><line x2="-6" y2="0" style="shape-rendering: crispEdges; fill: none; stroke: rgb(204, 204, 204);"></line><text dy=".32em" x="-9" y="0" style="text-anchor: end;">200</text></g><g class="tick" transform="translate(0,216.05566870332655)" style="opacity: 1;"><line x2="-6" y2="0" style="shape-rendering: crispEdges; fill: none; stroke: rgb(204, 204, 204);"></line><text dy=".32em" x="-9" y="0" style="text-anchor: end;">400</text></g><g class="tick" transform="translate(0,199.08350305498982)" style="opacity: 1;"><line x2="-6" y2="0" style="shape-rendering: crispEdges; fill: none; stroke: rgb(204, 204, 204);"></line><text dy=".32em" x="-9" y="0" style="text-anchor: end;">600</text></g><g class="tick" transform="translate(0,182.1113374066531)" style="opacity: 1;"><line x2="-6" y2="0" style="shape-rendering: crispEdges; fill: none; stroke: rgb(204, 204, 204);"></line><text dy=".32em" x="-9" y="0" style="text-anchor: end;">800</text></g><g class="tick" transform="translate(0,165.13917175831637)" style="opacity: 1;"><line x2="-6" y2="0" style="shape-rendering: crispEdges; fill: none; stroke: rgb(204, 204, 204);"></line><text dy=".32em" x="-9" y="0" style="text-anchor: end;">1,000</text></g><g class="tick" transform="translate(0,148.16700610997964)" style="opacity: 1;"><line x2="-6" y2="0" style="shape-rendering: crispEdges; fill: none; stroke: rgb(204, 204, 204);"></line><text dy=".32em" x="-9" y="0" style="text-anchor: end;">1,200</text></g><g class="tick" transform="translate(0,131.1948404616429)" style="opacity: 1;"><line x2="-6" y2="0" style="shape-rendering: crispEdges; fill: none; stroke: rgb(204, 204, 204);"></line><text dy=".32em" x="-9" y="0" style="text-anchor: end;">1,400</text></g><g class="tick" transform="translate(0,114.22267481330617)" style="opacity: 1;"><line x2="-6" y2="0" style="shape-rendering: crispEdges; fill: none; stroke: rgb(204, 204, 204);"></line><text dy=".32em" x="-9" y="0" style="text-anchor: end;">1,600</text></g><g class="tick" transform="translate(0,97.25050916496944)" style="opacity: 1;"><line x2="-6" y2="0" style="shape-rendering: crispEdges; fill: none; stroke: rgb(204, 204, 204);"></line><text dy=".32em" x="-9" y="0" style="text-anchor: end;">1,800</text></g><g class="tick" transform="translate(0,80.27834351663272)" style="opacity: 1;"><line x2="-6" y2="0" style="shape-rendering: crispEdges; fill: none; stroke: rgb(204, 204, 204);"></line><text dy=".32em" x="-9" y="0" style="text-anchor: end;">2,000</text></g><g class="tick" transform="translate(0,63.30617786829598)" style="opacity: 1;"><line x2="-6" y2="0" style="shape-rendering: crispEdges; fill: none; stroke: rgb(204, 204, 204);"></line><text dy=".32em" x="-9" y="0" style="text-anchor: end;">2,200</text></g><g class="tick" transform="translate(0,46.334012219959256)" style="opacity: 1;"><line x2="-6" y2="0" style="shape-rendering: crispEdges; fill: none; stroke: rgb(204, 204, 204);"></line><text dy=".32em" x="-9" y="0" style="text-anchor: end;">2,400</text></g><g class="tick" transform="translate(0,29.36184657162255)" style="opacity: 1;"><line x2="-6" y2="0" style="shape-rendering: crispEdges; fill: none; stroke: rgb(204, 204, 204);"></line><text dy=".32em" x="-9" y="0" style="text-anchor: end;">2,600</text></g><g class="tick" transform="translate(0,12.389680923285823)" style="opacity: 1;"><line x2="-6" y2="0" style="shape-rendering: crispEdges; fill: none; stroke: rgb(204, 204, 204);"></line><text dy=".32em" x="-9" y="0" style="text-anchor: end;">2,800</text></g><path class="domain" d="M-6,0H0V250H-6" style="shape-rendering: crispEdges; fill: none; stroke: rgb(204, 204, 204);"></path></g><rect transform="translate(0,30)" class="bar" x="2" width="51" y="0" height="250" style="fill: rgb(231, 85, 63);"></rect><rect transform="translate(0,30)" class="bar" x="87" width="51" y="54.14120841819417" height="195.85879158180583" style="fill: rgb(231, 85, 63);"></rect><rect transform="translate(0,30)" class="bar" x="172" width="51" y="63.90020366598778" height="186.0997963340122" style="fill: rgb(231, 85, 63);"></rect><rect transform="translate(0,30)" class="bar" x="257" width="51" y="88.6795655125594" height="161.3204344874406" style="fill: rgb(231, 85, 63);"></rect><rect transform="translate(0,30)" class="bar" x="342" width="51" y="104.2939579090292" height="145.7060420909708" style="fill: rgb(231, 85, 63);"></rect><rect transform="translate(0,30)" class="bar" x="427" width="51" y="127.80040733197556" height="122.19959266802444" style="fill: rgb(231, 85, 63);"></rect><rect transform="translate(0,30)" class="bar" x="512" width="51" y="147.99728445349623" height="102.00271554650377" style="fill: rgb(231, 85, 63);"></rect><rect transform="translate(0,30)" class="bar" x="597" width="51" y="157.6714188730482" height="92.3285811269518" style="fill: rgb(231, 85, 63);"></rect></g><g class="x axis" transform="translate(50,280)" style="font-size: 10px; font-family: Arial, Helvetica;"><g class="tick" transform="translate(27.5,0)" style="opacity: 1;"><line y2="6" x2="0" style="shape-rendering: crispEdges; fill: none; stroke: rgb(204, 204, 204);"></line><text dy=".71em" y="9" x="0" style="text-anchor: middle;">2008</text></g><g class="tick" transform="translate(112.5,0)" style="opacity: 1;"><line y2="6" x2="0" style="shape-rendering: crispEdges; fill: none; stroke: rgb(204, 204, 204);"></line><text dy=".71em" y="9" x="0" style="text-anchor: middle;">2009</text></g><g class="tick" transform="translate(197.5,0)" style="opacity: 1;"><line y2="6" x2="0" style="shape-rendering: crispEdges; fill: none; stroke: rgb(204, 204, 204);"></line><text dy=".71em" y="9" x="0" style="text-anchor: middle;">2010</text></g><g class="tick" transform="translate(282.5,0)" style="opacity: 1;"><line y2="6" x2="0" style="shape-rendering: crispEdges; fill: none; stroke: rgb(204, 204, 204);"></line><text dy=".71em" y="9" x="0" style="text-anchor: middle;">2011</text></g><g class="tick" transform="translate(367.5,0)" style="opacity: 1;"><line y2="6" x2="0" style="shape-rendering: crispEdges; fill: none; stroke: rgb(204, 204, 204);"></line><text dy=".71em" y="9" x="0" style="text-anchor: middle;">2012</text></g><g class="tick" transform="translate(452.5,0)" style="opacity: 1;"><line y2="6" x2="0" style="shape-rendering: crispEdges; fill: none; stroke: rgb(204, 204, 204);"></line><text dy=".71em" y="9" x="0" style="text-anchor: middle;">2013</text></g><g class="tick" transform="translate(537.5,0)" style="opacity: 1;"><line y2="6" x2="0" style="shape-rendering: crispEdges; fill: none; stroke: rgb(204, 204, 204);"></line><text dy=".71em" y="9" x="0" style="text-anchor: middle;">2014</text></g><g class="tick" transform="translate(622.5,0)" style="opacity: 1;"><line y2="6" x2="0" style="shape-rendering: crispEdges; fill: none; stroke: rgb(204, 204, 204);"></line><text dy=".71em" y="9" x="0" style="text-anchor: middle;">2015</text></g><path class="domain" d="M0,6V0H650V6" style="shape-rendering: crispEdges; fill: none; stroke: rgb(204, 204, 204);"></path></g></svg>