<svg width="700" height="300" xmlns="http://www.w3.org/2000/svg" version="1.1"><g transform="translate(50,0)"><text x="-50" y="-7" style="font-size: 10px; font-family: Arial, Helvetica;">null</text><g class="y axis" transform="translate(0,0)" style="font-size: 10px; font-family: Arial, Helvetica;"><g class="tick" transform="translate(0,250)" style="opacity: 1;"><line x2="-6" y2="0" style="shape-rendering: crispEdges; fill: none; stroke: rgb(204, 204, 204);"></line><text dy=".32em" x="-9" y="0" style="text-anchor: end;">0</text></g><g class="tick" transform="translate(0,226.79168213887857)" style="opacity: 1;"><line x2="-6" y2="0" style="shape-rendering: crispEdges; fill: none; stroke: rgb(204, 204, 204);"></line><text dy=".32em" x="-9" y="0" style="text-anchor: end;">500</text></g><g class="tick" transform="translate(0,203.58336427775714)" style="opacity: 1;"><line x2="-6" y2="0" style="shape-rendering: crispEdges; fill: none; stroke: rgb(204, 204, 204);"></line><text dy=".32em" x="-9" y="0" style="text-anchor: end;">1,000</text></g><g class="tick" transform="translate(0,180.3750464166357)" style="opacity: 1;"><line x2="-6" y2="0" style="shape-rendering: crispEdges; fill: none; stroke: rgb(204, 204, 204);"></line><text dy=".32em" x="-9" y="0" style="text-anchor: end;">1,500</text></g><g class="tick" transform="translate(0,157.16672855551428)" style="opacity: 1;"><line x2="-6" y2="0" style="shape-rendering: crispEdges; fill: none; stroke: rgb(204, 204, 204);"></line><text dy=".32em" x="-9" y="0" style="text-anchor: end;">2,000</text></g><g class="tick" transform="translate(0,133.95841069439288)" style="opacity: 1;"><line x2="-6" y2="0" style="shape-rendering: crispEdges; fill: none; stroke: rgb(204, 204, 204);"></line><text dy=".32em" x="-9" y="0" style="text-anchor: end;">2,500</text></g><g class="tick" transform="translate(0,110.75009283327145)" style="opacity: 1;"><line x2="-6" y2="0" style="shape-rendering: crispEdges; fill: none; stroke: rgb(204, 204, 204);"></line><text dy=".32em" x="-9" y="0" style="text-anchor: end;">3,000</text></g><g class="tick" transform="translate(0,87.54177497215002)" style="opacity: 1;"><line x2="-6" y2="0" style="shape-rendering: crispEdges; fill: none; stroke: rgb(204, 204, 204);"></line><text dy=".32em" x="-9" y="0" style="text-anchor: end;">3,500</text></g><g class="tick" transform="translate(0,64.33345711102858)" style="opacity: 1;"><line x2="-6" y2="0" style="shape-rendering: crispEdges; fill: none; stroke: rgb(204, 204, 204);"></line><text dy=".32em" x="-9" y="0" style="text-anchor: end;">4,000</text></g><g class="tick" transform="translate(0,41.12513924990716)" style="opacity: 1;"><line x2="-6" y2="0" style="shape-rendering: crispEdges; fill: none; stroke: rgb(204, 204, 204);"></line><text dy=".32em" x="-9" y="0" style="text-anchor: end;">4,500</text></g><g class="tick" transform="translate(0,17.916821388785753)" style="opacity: 1;"><line x2="-6" y2="0" style="shape-rendering: crispEdges; fill: none; stroke: rgb(204, 204, 204);"></line><text dy=".32em" x="-9" y="0" style="text-anchor: end;">5,000</text></g><path class="domain" d="M-6,0H0V250H-6" style="shape-rendering: crispEdges; fill: none; stroke: rgb(204, 204, 204);"></path></g><rect transform="translate(0,0)" class="bar" x="2" width="51" y="15.178239881173422" height="234.82176011882657" style="fill: rgb(242, 162, 0);"></rect><rect transform="translate(0,0)" class="bar" x="87" width="51" y="0" height="250" style="fill: rgb(242, 162, 0);"></rect><rect transform="translate(0,0)" class="bar" x="172" width="51" y="17.266988488674333" height="232.73301151132566" style="fill: rgb(242, 162, 0);"></rect><rect transform="translate(0,0)" class="bar" x="257" width="51" y="41.31080579279614" height="208.68919420720385" style="fill: rgb(242, 162, 0);"></rect><rect transform="translate(0,0)" class="bar" x="342" width="51" y="64.79762346825102" height="185.202376531749" style="fill: rgb(242, 162, 0);"></rect><rect transform="translate(0,0)" class="bar" x="427" width="51" y="82.85369476420348" height="167.14630523579652" style="fill: rgb(242, 162, 0);"></rect><rect transform="translate(0,0)" class="bar" x="512" width="51" y="95.8503527664315" height="154.1496472335685" style="fill: rgb(242, 162, 0);"></rect><rect transform="translate(0,0)" class="bar" x="597" width="51" y="113.90642406238396" height="136.09357593761604" style="fill: rgb(242, 162, 0);"></rect></g><g class="x axis" transform="translate(50,250)" style="font-size: 10px; font-family: Arial, Helvetica;"><g class="tick" transform="translate(27.5,0)" style="opacity: 1;"><line y2="6" x2="0" style="shape-rendering: crispEdges; fill: none; stroke: rgb(204, 204, 204);"></line><text dy=".71em" y="9" x="0" style="text-anchor: middle;">2008</text></g><g class="tick" transform="translate(112.5,0)" style="opacity: 1;"><line y2="6" x2="0" style="shape-rendering: crispEdges; fill: none; stroke: rgb(204, 204, 204);"></line><text dy=".71em" y="9" x="0" style="text-anchor: middle;">2009</text></g><g class="tick" transform="translate(197.5,0)" style="opacity: 1;"><line y2="6" x2="0" style="shape-rendering: crispEdges; fill: none; stroke: rgb(204, 204, 204);"></line><text dy=".71em" y="9" x="0" style="text-anchor: middle;">2010</text></g><g class="tick" transform="translate(282.5,0)" style="opacity: 1;"><line y2="6" x2="0" style="shape-rendering: crispEdges; fill: none; stroke: rgb(204, 204, 204);"></line><text dy=".71em" y="9" x="0" style="text-anchor: middle;">2011</text></g><g class="tick" transform="translate(367.5,0)" style="opacity: 1;"><line y2="6" x2="0" style="shape-rendering: crispEdges; fill: none; stroke: rgb(204, 204, 204);"></line><text dy=".71em" y="9" x="0" style="text-anchor: middle;">2012</text></g><g class="tick" transform="translate(452.5,0)" style="opacity: 1;"><line y2="6" x2="0" style="shape-rendering: crispEdges; fill: none; stroke: rgb(204, 204, 204);"></line><text dy=".71em" y="9" x="0" style="text-anchor: middle;">2013</text></g><g class="tick" transform="translate(537.5,0)" style="opacity: 1;"><line y2="6" x2="0" style="shape-rendering: crispEdges; fill: none; stroke: rgb(204, 204, 204);"></line><text dy=".71em" y="9" x="0" style="text-anchor: middle;">2014</text></g><g class="tick" transform="translate(622.5,0)" style="opacity: 1;"><line y2="6" x2="0" style="shape-rendering: crispEdges; fill: none; stroke: rgb(204, 204, 204);"></line><text dy=".71em" y="9" x="0" style="text-anchor: middle;">2015</text></g><path class="domain" d="M0,6V0H650V6" style="shape-rendering: crispEdges; fill: none; stroke: rgb(204, 204, 204);"></path></g></svg>